<?xml version="1.0" encoding="UTF-8"?>
<svg width="48" height="48" viewBox="0 0 48 48" fill="none" xmlns="http://www.w3.org/2000/svg">
  <rect width="48" height="48" rx="10" fill="#1DB954"/>
  <path d="M34 20.5c-7-4-18.5-4.7-24.5-2.3a2 2 0 0 1-2.4-1.1 2 2 0 0 1 1.1-2.5C17 12 30 12.9 38.5 18c1.1.6 1.5 2 1 3.1-.5 1.05-1.8 1.45-2.6.4z" fill="#fff" opacity="0.95"/>
  <path d="M35.5 26.2c-8.1-4.7-21.9-5.7-27.3-3a2 2 0 1 1-1.9-3.4c6.9-3.8 22.2-2.8 31.1 3.5a2 2 0 0 1 .6 2.8 2 2 0 0 1-2.5.1z" fill="#fff" opacity="0.95"/>
  <path d="M33.8 30.8c-6.6-3.8-17.9-4.6-22.3-2.4a2 2 0 0 1-2.2-3.3c5.6-3.7 17.3-2.6 24.9 2.6a2 2 0 0 1 .5 2.8 2 2 0 0 1-1.1.3z" fill="#fff" opacity="0.95"/>
</svg>
